<?xml version="1.0" encoding="UTF-8" standalone="no"?><!DOCTYPE svg PUBLIC "-//W3C//DTD SVG 1.1//EN" "http://www.w3.org/Graphics/SVG/1.1/DTD/svg11.dtd"><!-- Generated by graphviz version 2.40.1 (20161225.0304)
 --><!-- Title: %0 Pages: 1 --><svg xmlns="http://www.w3.org/2000/svg" xmlns:xlink="http://www.w3.org/1999/xlink" width="266pt" height="1124pt" viewBox="0.00 0.00 266.07 1124.00">
<g id="graph0" class="graph" transform="scale(1 1) rotate(0) translate(4 1120)">
<title>%0</title>
<polygon fill="#ffffff" stroke="transparent" points="-4,4 -4,-1120 262.0694,-1120 262.0694,4 -4,4"/>
<!-- arXiv PDF -->
<g id="node1" class="node">
<title>arXiv PDF</title>
<ellipse fill="none" stroke="#000000" cx="129.0347" cy="-1098" rx="53.2878" ry="18"/>
<text text-anchor="middle" x="129.0347" y="-1093.8" font-family="Times,serif" font-size="14.00" fill="#000000">arXiv PDF</text>
</g>
<!-- PDF text -->
<g id="node2" class="node">
<title>PDF text</title>
<ellipse fill="none" stroke="#000000" cx="129.0347" cy="-1026" rx="45.7828" ry="18"/>
<text text-anchor="middle" x="129.0347" y="-1021.8" font-family="Times,serif" font-size="14.00" fill="#000000">PDF text</text>
</g>
<!-- arXiv PDF&#45;&gt;PDF text -->
<g id="edge1" class="edge">
<title>arXiv PDF-&gt;PDF text</title>
<path fill="none" stroke="#000000" d="M129.0347,-1079.8314C129.0347,-1072.131 129.0347,-1062.9743 129.0347,-1054.4166"/>
<polygon fill="#000000" stroke="#000000" points="132.5348,-1054.4132 129.0347,-1044.4133 125.5348,-1054.4133 132.5348,-1054.4132"/>
</g>
<!-- Summary -->
<g id="node3" class="node">
<title>Summary</title>
<ellipse fill="none" stroke="#000000" cx="129.0347" cy="-954" rx="48.6752" ry="18"/>
<text text-anchor="middle" x="129.0347" y="-949.8" font-family="Times,serif" font-size="14.00" fill="#000000">Summary</text>
</g>
<!-- PDF text&#45;&gt;Summary -->
<g id="edge2" class="edge">
<title>PDF text-&gt;Summary</title>
<path fill="none" stroke="#000000" d="M129.0347,-1007.8314C129.0347,-1000.131 129.0347,-990.9743 129.0347,-982.4166"/>
<polygon fill="#000000" stroke="#000000" points="132.5348,-982.4132 129.0347,-972.4133 125.5348,-982.4133 132.5348,-982.4132"/>
</g>
<!-- Quantitative Results -->
<g id="node4" class="node">
<title>Quantitative Results</title>
<ellipse fill="none" stroke="#000000" cx="129.0347" cy="-882" rx="89.74" ry="18"/>
<text text-anchor="middle" x="129.0347" y="-877.8" font-family="Times,serif" font-size="14.00" fill="#000000">Quantitative Results</text>
</g>
<!-- Summary&#45;&gt;Quantitative Results -->
<g id="edge3" class="edge">
<title>Summary-&gt;Quantitative Results</title>
<path fill="none" stroke="#000000" d="M129.0347,-935.8314C129.0347,-928.131 129.0347,-918.9743 129.0347,-910.4166"/>
<polygon fill="#000000" stroke="#000000" points="132.5348,-910.4132 129.0347,-900.4133 125.5348,-910.4133 132.5348,-910.4132"/>
</g>
<!-- Core Ideas -->
<g id="node5" class="node">
<title>Core Ideas</title>
<ellipse fill="none" stroke="#000000" cx="129.0347" cy="-810" rx="52.6866" ry="18"/>
<text text-anchor="middle" x="129.0347" y="-805.8" font-family="Times,serif" font-size="14.00" fill="#000000">Core Ideas</text>
</g>
<!-- Quantitative Results&#45;&gt;Core Ideas -->
<g id="edge4" class="edge">
<title>Quantitative Results-&gt;Core Ideas</title>
<path fill="none" stroke="#000000" d="M129.0347,-863.8314C129.0347,-856.131 129.0347,-846.9743 129.0347,-838.4166"/>
<polygon fill="#000000" stroke="#000000" points="132.5348,-838.4132 129.0347,-828.4133 125.5348,-838.4133 132.5348,-838.4132"/>
</g>
<!-- Key Metrics -->
<g id="node6" class="node">
<title>Key Metrics</title>
<ellipse fill="none" stroke="#000000" cx="129.0347" cy="-738" rx="59.065" ry="18"/>
<text text-anchor="middle" x="129.0347" y="-733.8" font-family="Times,serif" font-size="14.00" fill="#000000">Key Metrics</text>
</g>
<!-- Core Ideas&#45;&gt;Key Metrics -->
<g id="edge5" class="edge">
<title>Core Ideas-&gt;Key Metrics</title>
<path fill="none" stroke="#000000" d="M129.0347,-791.8314C129.0347,-784.131 129.0347,-774.9743 129.0347,-766.4166"/>
<polygon fill="#000000" stroke="#000000" points="132.5348,-766.4132 129.0347,-756.4133 125.5348,-766.4133 132.5348,-766.4132"/>
</g>
<!-- Hardware Agnostic Metrics -->
<g id="node7" class="node">
<title>Hardware Agnostic Metrics</title>
<ellipse fill="none" stroke="#000000" cx="129.0347" cy="-666" rx="118.0754" ry="18"/>
<text text-anchor="middle" x="129.0347" y="-661.8" font-family="Times,serif" font-size="14.00" fill="#000000">Hardware Agnostic Metrics</text>
</g>
<!-- Key Metrics&#45;&gt;Hardware Agnostic Metrics -->
<g id="edge6" class="edge">
<title>Key Metrics-&gt;Hardware Agnostic Metrics</title>
<path fill="none" stroke="#000000" d="M129.0347,-719.8314C129.0347,-712.131 129.0347,-702.9743 129.0347,-694.4166"/>
<polygon fill="#000000" stroke="#000000" points="132.5348,-694.4132 129.0347,-684.4133 125.5348,-694.4133 132.5348,-694.4132"/>
</g>
<!-- Baseline Methods -->
<g id="node8" class="node">
<title>Baseline Methods</title>
<ellipse fill="none" stroke="#000000" cx="129.0347" cy="-594" rx="80.4959" ry="18"/>
<text text-anchor="middle" x="129.0347" y="-589.8" font-family="Times,serif" font-size="14.00" fill="#000000">Baseline Methods</text>
</g>
<!-- Hardware Agnostic Metrics&#45;&gt;Baseline Methods -->
<g id="edge7" class="edge">
<title>Hardware Agnostic Metrics-&gt;Baseline Methods</title>
<path fill="none" stroke="#000000" d="M129.0347,-647.8314C129.0347,-640.131 129.0347,-630.9743 129.0347,-622.4166"/>
<polygon fill="#000000" stroke="#000000" points="132.5348,-622.4132 129.0347,-612.4133 125.5348,-622.4133 132.5348,-622.4132"/>
</g>
<!-- Experimental Methods -->
<g id="node9" class="node">
<title>Experimental Methods</title>
<ellipse fill="none" stroke="#000000" cx="129.0347" cy="-522" rx="99.0388" ry="18"/>
<text text-anchor="middle" x="129.0347" y="-517.8" font-family="Times,serif" font-size="14.00" fill="#000000">Experimental Methods</text>
</g>
<!-- Baseline Methods&#45;&gt;Experimental Methods -->
<g id="edge8" class="edge">
<title>Baseline Methods-&gt;Experimental Methods</title>
<path fill="none" stroke="#000000" d="M129.0347,-575.8314C129.0347,-568.131 129.0347,-558.9743 129.0347,-550.4166"/>
<polygon fill="#000000" stroke="#000000" points="132.5348,-550.4132 129.0347,-540.4133 125.5348,-550.4133 132.5348,-550.4132"/>
</g>
<!-- Method&#45;Metric&#45;Results -->
<g id="node10" class="node">
<title>Method-Metric-Results</title>
<ellipse fill="none" stroke="#000000" cx="129.0347" cy="-450" rx="101.8593" ry="18"/>
<text text-anchor="middle" x="129.0347" y="-445.8" font-family="Times,serif" font-size="14.00" fill="#000000">Method-Metric-Results</text>
</g>
<!-- Experimental Methods&#45;&gt;Method&#45;Metric&#45;Results -->
<g id="edge9" class="edge">
<title>Experimental Methods-&gt;Method-Metric-Results</title>
<path fill="none" stroke="#000000" d="M129.0347,-503.8314C129.0347,-496.131 129.0347,-486.9743 129.0347,-478.4166"/>
<polygon fill="#000000" stroke="#000000" points="132.5348,-478.4132 129.0347,-468.4133 125.5348,-478.4133 132.5348,-478.4132"/>
</g>
<!-- Task Candidates -->
<g id="node11" class="node">
<title>Task Candidates</title>
<ellipse fill="none" stroke="#000000" cx="129.0347" cy="-378" rx="75.2595" ry="18"/>
<text text-anchor="middle" x="129.0347" y="-373.8" font-family="Times,serif" font-size="14.00" fill="#000000">Task Candidates</text>
</g>
<!-- Method&#45;Metric&#45;Results&#45;&gt;Task Candidates -->
<g id="edge10" class="edge">
<title>Method-Metric-Results-&gt;Task Candidates</title>
<path fill="none" stroke="#000000" d="M129.0347,-431.8314C129.0347,-424.131 129.0347,-414.9743 129.0347,-406.4166"/>
<polygon fill="#000000" stroke="#000000" points="132.5348,-406.4132 129.0347,-396.4133 125.5348,-406.4133 132.5348,-406.4132"/>
</g>
<!-- Task Prerequisites -->
<g id="node12" class="node">
<title>Task Prerequisites</title>
<ellipse fill="none" stroke="#000000" cx="129.0347" cy="-306" rx="82.1963" ry="18"/>
<text text-anchor="middle" x="129.0347" y="-301.8" font-family="Times,serif" font-size="14.00" fill="#000000">Task Prerequisites</text>
</g>
<!-- Task Candidates&#45;&gt;Task Prerequisites -->
<g id="edge11" class="edge">
<title>Task Candidates-&gt;Task Prerequisites</title>
<path fill="none" stroke="#000000" d="M129.0347,-359.8314C129.0347,-352.131 129.0347,-342.9743 129.0347,-334.4166"/>
<polygon fill="#000000" stroke="#000000" points="132.5348,-334.4132 129.0347,-324.4133 125.5348,-334.4133 132.5348,-334.4132"/>
</g>
<!-- Task Instructions -->
<g id="node13" class="node">
<title>Task Instructions</title>
<ellipse fill="none" stroke="#000000" cx="129.0347" cy="-234" rx="77.6271" ry="18"/>
<text text-anchor="middle" x="129.0347" y="-229.8" font-family="Times,serif" font-size="14.00" fill="#000000">Task Instructions</text>
</g>
<!-- Task Prerequisites&#45;&gt;Task Instructions -->
<g id="edge12" class="edge">
<title>Task Prerequisites-&gt;Task Instructions</title>
<path fill="none" stroke="#000000" d="M129.0347,-287.8314C129.0347,-280.131 129.0347,-270.9743 129.0347,-262.4166"/>
<polygon fill="#000000" stroke="#000000" points="132.5348,-262.4132 129.0347,-252.4133 125.5348,-262.4133 132.5348,-262.4132"/>
</g>
<!-- Task Baseline Implementation -->
<g id="node14" class="node">
<title>Task Baseline Implementation</title>
<ellipse fill="none" stroke="#000000" cx="129.0347" cy="-162" rx="129.0694" ry="18"/>
<text text-anchor="middle" x="129.0347" y="-157.8" font-family="Times,serif" font-size="14.00" fill="#000000">Task Baseline Implementation</text>
</g>
<!-- Task Instructions&#45;&gt;Task Baseline Implementation -->
<g id="edge13" class="edge">
<title>Task Instructions-&gt;Task Baseline Implementation</title>
<path fill="none" stroke="#000000" d="M129.0347,-215.8314C129.0347,-208.131 129.0347,-198.9743 129.0347,-190.4166"/>
<polygon fill="#000000" stroke="#000000" points="132.5348,-190.4132 129.0347,-180.4133 125.5348,-190.4133 132.5348,-190.4132"/>
</g>
<!-- Task Scoring Implementation -->
<g id="node15" class="node">
<title>Task Scoring Implementation</title>
<ellipse fill="none" stroke="#000000" cx="129.0347" cy="-90" rx="125.6439" ry="18"/>
<text text-anchor="middle" x="129.0347" y="-85.8" font-family="Times,serif" font-size="14.00" fill="#000000">Task Scoring Implementation</text>
</g>
<!-- Task Baseline Implementation&#45;&gt;Task Scoring Implementation -->
<g id="edge14" class="edge">
<title>Task Baseline Implementation-&gt;Task Scoring Implementation</title>
<path fill="none" stroke="#000000" d="M129.0347,-143.8314C129.0347,-136.131 129.0347,-126.9743 129.0347,-118.4166"/>
<polygon fill="#000000" stroke="#000000" points="132.5348,-118.4132 129.0347,-108.4133 125.5348,-118.4133 132.5348,-118.4132"/>
</g>
<!-- Environment Setup Script -->
<g id="node16" class="node">
<title>Environment Setup Script</title>
<ellipse fill="none" stroke="#000000" cx="129.0347" cy="-18" rx="111.1982" ry="18"/>
<text text-anchor="middle" x="129.0347" y="-13.8" font-family="Times,serif" font-size="14.00" fill="#000000">Environment Setup Script</text>
</g>
<!-- Task Scoring Implementation&#45;&gt;Environment Setup Script -->
<g id="edge15" class="edge">
<title>Task Scoring Implementation-&gt;Environment Setup Script</title>
<path fill="none" stroke="#000000" d="M129.0347,-71.8314C129.0347,-64.131 129.0347,-54.9743 129.0347,-46.4166"/>
<polygon fill="#000000" stroke="#000000" points="132.5348,-46.4132 129.0347,-36.4133 125.5348,-46.4133 132.5348,-46.4132"/>
</g>
</g>
</svg>